<mxfile host="app.diagrams.net" agent="Mozilla/5.0 (Macintosh; Intel Mac OS X 10_15_7) AppleWebKit/537.36 (KHTML, like Gecko) Chrome/127.0.0.0 Safari/537.36" version="24.7.7">
  <diagram name="Model Diagram" id="ku3VJI9c7UnODlbMuwZV">
    <mxGraphModel dx="1207" dy="766" grid="1" gridSize="10" guides="1" tooltips="1" connect="1" arrows="1" fold="1" page="1" pageScale="1" pageWidth="827" pageHeight="1169" math="1" shadow="0">
      <root>
        <mxCell id="0" />
        <mxCell id="1" parent="0" />
        <mxCell id="CMOBdedSrL2Xa0OibJcl-4" value="" style="edgeStyle=orthogonalEdgeStyle;rounded=0;orthogonalLoop=1;jettySize=auto;html=1;fontFamily=Times New Roman;fontSize=17;strokeWidth=2;" edge="1" parent="1" source="CMOBdedSrL2Xa0OibJcl-1" target="CMOBdedSrL2Xa0OibJcl-3">
          <mxGeometry relative="1" as="geometry" />
        </mxCell>
        <mxCell id="CMOBdedSrL2Xa0OibJcl-1" value="Root Node&lt;br style=&quot;font-size: 17px;&quot;&gt;getCombos(RT,RA,FC)" style="ellipse;whiteSpace=wrap;html=1;fontFamily=Times New Roman;fontSize=17;strokeWidth=2;fontStyle=1" vertex="1" parent="1">
          <mxGeometry x="220" y="60" width="200" height="80" as="geometry" />
        </mxCell>
        <mxCell id="CMOBdedSrL2Xa0OibJcl-2" value="FitModel(RT,RA,FC, combo)" style="text;html=1;align=center;verticalAlign=middle;whiteSpace=wrap;rounded=0;fontFamily=Times New Roman;fontSize=17;strokeWidth=2;" vertex="1" parent="1">
          <mxGeometry x="320" y="150" width="220" height="30" as="geometry" />
        </mxCell>
        <mxCell id="CMOBdedSrL2Xa0OibJcl-6" value="" style="edgeStyle=orthogonalEdgeStyle;rounded=0;orthogonalLoop=1;jettySize=auto;html=1;fontFamily=Times New Roman;fontSize=17;strokeWidth=2;" edge="1" parent="1" source="CMOBdedSrL2Xa0OibJcl-3" target="CMOBdedSrL2Xa0OibJcl-5">
          <mxGeometry relative="1" as="geometry" />
        </mxCell>
        <mxCell id="CMOBdedSrL2Xa0OibJcl-8" value="" style="edgeStyle=orthogonalEdgeStyle;rounded=0;orthogonalLoop=1;jettySize=auto;html=1;fontFamily=Times New Roman;fontSize=17;strokeWidth=2;" edge="1" parent="1" source="CMOBdedSrL2Xa0OibJcl-3" target="CMOBdedSrL2Xa0OibJcl-7">
          <mxGeometry relative="1" as="geometry" />
        </mxCell>
        <mxCell id="CMOBdedSrL2Xa0OibJcl-3" value="`\pi_g`&amp;lt; (threshod=0.5)" style="whiteSpace=wrap;html=1;fontSize=17;fontFamily=Times New Roman;strokeWidth=2;" vertex="1" parent="1">
          <mxGeometry x="240" y="210" width="160" height="60" as="geometry" />
        </mxCell>
        <mxCell id="CMOBdedSrL2Xa0OibJcl-5" value="Normally&lt;br style=&quot;font-size: 17px;&quot;&gt;Behaved Case" style="whiteSpace=wrap;html=1;fontSize=17;fontFamily=Times New Roman;strokeWidth=2;" vertex="1" parent="1">
          <mxGeometry x="90" y="330" width="160" height="60" as="geometry" />
        </mxCell>
        <mxCell id="CMOBdedSrL2Xa0OibJcl-10" value="" style="edgeStyle=orthogonalEdgeStyle;rounded=0;orthogonalLoop=1;jettySize=auto;html=1;fontFamily=Times New Roman;fontSize=17;strokeWidth=2;" edge="1" parent="1" source="CMOBdedSrL2Xa0OibJcl-7" target="CMOBdedSrL2Xa0OibJcl-9">
          <mxGeometry relative="1" as="geometry" />
        </mxCell>
        <mxCell id="CMOBdedSrL2Xa0OibJcl-7" value="Node2&lt;br style=&quot;font-size: 17px;&quot;&gt;Cheated Case" style="whiteSpace=wrap;html=1;fontSize=17;fontFamily=Times New Roman;strokeWidth=2;fontStyle=1" vertex="1" parent="1">
          <mxGeometry x="390" y="330" width="160" height="60" as="geometry" />
        </mxCell>
        <mxCell id="CMOBdedSrL2Xa0OibJcl-12" value="" style="edgeStyle=orthogonalEdgeStyle;rounded=0;orthogonalLoop=1;jettySize=auto;html=1;fontFamily=Times New Roman;fontSize=17;strokeWidth=2;" edge="1" parent="1" source="CMOBdedSrL2Xa0OibJcl-9" target="CMOBdedSrL2Xa0OibJcl-11">
          <mxGeometry relative="1" as="geometry" />
        </mxCell>
        <mxCell id="CMOBdedSrL2Xa0OibJcl-14" value="" style="edgeStyle=orthogonalEdgeStyle;rounded=0;orthogonalLoop=1;jettySize=auto;html=1;fontFamily=Times New Roman;fontSize=17;strokeWidth=2;" edge="1" parent="1" source="CMOBdedSrL2Xa0OibJcl-9" target="CMOBdedSrL2Xa0OibJcl-13">
          <mxGeometry relative="1" as="geometry" />
        </mxCell>
        <mxCell id="CMOBdedSrL2Xa0OibJcl-9" value="`\pi_g`&amp;lt; (threshod=0.5)" style="whiteSpace=wrap;html=1;fontSize=17;fontFamily=Times New Roman;strokeWidth=2;" vertex="1" parent="1">
          <mxGeometry x="390" y="470" width="160" height="60" as="geometry" />
        </mxCell>
        <mxCell id="CMOBdedSrL2Xa0OibJcl-29" value="" style="edgeStyle=orthogonalEdgeStyle;rounded=0;orthogonalLoop=1;jettySize=auto;html=1;fontSize=11;strokeWidth=2;dashed=1;" edge="1" parent="1" source="CMOBdedSrL2Xa0OibJcl-11">
          <mxGeometry relative="1" as="geometry">
            <mxPoint x="295" y="750" as="targetPoint" />
            <Array as="points">
              <mxPoint x="370" y="700" />
              <mxPoint x="295" y="700" />
            </Array>
          </mxGeometry>
        </mxCell>
        <mxCell id="CMOBdedSrL2Xa0OibJcl-31" value="" style="edgeStyle=orthogonalEdgeStyle;rounded=0;orthogonalLoop=1;jettySize=auto;html=1;fontSize=11;strokeWidth=2;dashed=1;" edge="1" parent="1" source="CMOBdedSrL2Xa0OibJcl-11">
          <mxGeometry relative="1" as="geometry">
            <mxPoint x="444" y="750" as="targetPoint" />
            <Array as="points">
              <mxPoint x="370" y="700" />
              <mxPoint x="445" y="700" />
              <mxPoint x="445" y="750" />
            </Array>
          </mxGeometry>
        </mxCell>
        <mxCell id="CMOBdedSrL2Xa0OibJcl-11" value="Node3&lt;br style=&quot;font-size: 17px;&quot;&gt;Partially Preknowledge&lt;br style=&quot;font-size: 17px;&quot;&gt;Cheated Case" style="whiteSpace=wrap;html=1;fontSize=17;fontFamily=Times New Roman;strokeWidth=2;fontStyle=1" vertex="1" parent="1">
          <mxGeometry x="280" y="620" width="180" height="60" as="geometry" />
        </mxCell>
        <mxCell id="CMOBdedSrL2Xa0OibJcl-39" value="" style="edgeStyle=orthogonalEdgeStyle;rounded=0;orthogonalLoop=1;jettySize=auto;html=1;fontSize=11;strokeWidth=2;dashed=1;" edge="1" parent="1" source="CMOBdedSrL2Xa0OibJcl-13">
          <mxGeometry relative="1" as="geometry">
            <mxPoint x="500" y="750" as="targetPoint" />
            <Array as="points">
              <mxPoint x="580" y="700" />
              <mxPoint x="501" y="700" />
              <mxPoint x="501" y="750" />
            </Array>
          </mxGeometry>
        </mxCell>
        <mxCell id="CMOBdedSrL2Xa0OibJcl-41" value="" style="edgeStyle=orthogonalEdgeStyle;rounded=0;orthogonalLoop=1;jettySize=auto;html=1;fontSize=11;strokeWidth=2;dashed=1;" edge="1" parent="1" source="CMOBdedSrL2Xa0OibJcl-13">
          <mxGeometry relative="1" as="geometry">
            <mxPoint x="660" y="750" as="targetPoint" />
            <Array as="points">
              <mxPoint x="580" y="700" />
              <mxPoint x="660" y="700" />
            </Array>
          </mxGeometry>
        </mxCell>
        <mxCell id="CMOBdedSrL2Xa0OibJcl-13" value="Node4&lt;br style=&quot;font-size: 17px;&quot;&gt;Fully Preknowledge&lt;br style=&quot;font-size: 17px;&quot;&gt;Cheated Case" style="whiteSpace=wrap;html=1;fontSize=17;fontFamily=Times New Roman;strokeWidth=2;fontStyle=1" vertex="1" parent="1">
          <mxGeometry x="500" y="620" width="160" height="60" as="geometry" />
        </mxCell>
        <mxCell id="CMOBdedSrL2Xa0OibJcl-15" value="(e.g., Preknowlege, Cheating)" style="text;html=1;align=center;verticalAlign=middle;whiteSpace=wrap;rounded=0;fontFamily=Times New Roman;fontSize=17;strokeWidth=2;" vertex="1" parent="1">
          <mxGeometry x="560" y="350" width="160" height="25" as="geometry" />
        </mxCell>
        <mxCell id="CMOBdedSrL2Xa0OibJcl-16" value="FitModel(RT,RA,FC, combo)" style="text;html=1;align=center;verticalAlign=middle;whiteSpace=wrap;rounded=0;fontFamily=Times New Roman;fontSize=17;strokeWidth=2;" vertex="1" parent="1">
          <mxGeometry x="475" y="410" width="210" height="30" as="geometry" />
        </mxCell>
        <mxCell id="CMOBdedSrL2Xa0OibJcl-18" value="Yes" style="text;html=1;align=center;verticalAlign=middle;whiteSpace=wrap;rounded=0;fontFamily=Times New Roman;fontSize=17;strokeWidth=2;" vertex="1" parent="1">
          <mxGeometry x="190" y="270" width="50" height="30" as="geometry" />
        </mxCell>
        <mxCell id="CMOBdedSrL2Xa0OibJcl-19" value="No" style="text;html=1;align=center;verticalAlign=middle;whiteSpace=wrap;rounded=0;fontFamily=Times New Roman;fontSize=17;strokeWidth=2;" vertex="1" parent="1">
          <mxGeometry x="400" y="270" width="50" height="30" as="geometry" />
        </mxCell>
        <mxCell id="CMOBdedSrL2Xa0OibJcl-20" value="Yes" style="text;html=1;align=center;verticalAlign=middle;whiteSpace=wrap;rounded=0;fontFamily=Times New Roman;fontSize=17;strokeWidth=2;" vertex="1" parent="1">
          <mxGeometry x="380" y="550" width="50" height="30" as="geometry" />
        </mxCell>
        <mxCell id="CMOBdedSrL2Xa0OibJcl-21" value="No" style="text;html=1;align=center;verticalAlign=middle;whiteSpace=wrap;rounded=0;fontFamily=Times New Roman;fontSize=17;strokeWidth=2;" vertex="1" parent="1">
          <mxGeometry x="500" y="550" width="50" height="30" as="geometry" />
        </mxCell>
      </root>
    </mxGraphModel>
  </diagram>
</mxfile>
